<svg width="289" height="287" viewBox="0 0 289 287" fill="none" xmlns="http://www.w3.org/2000/svg">
<path d="M144.406 2L57.8093 255.635L144.406 193.99L231.003 255.635L144.406 2Z" fill="#1D1D1D"/>
<path d="M144.406 2C65.7574 2 2 65.3004 2 143.385C2 189.125 23.8771 229.793 57.8093 255.635M144.406 2C223.055 2 286.812 65.3004 286.812 143.385C286.812 189.125 264.935 229.793 231.003 255.635M144.406 2L57.8093 255.635M144.406 2L231.003 255.635M57.8093 255.635C81.8044 273.909 111.828 284.771 144.406 284.771C176.985 284.771 207.008 273.909 231.003 255.635M57.8093 255.635L144.406 193.99L231.003 255.635" stroke="#1D1D1D" stroke-width="3.0625"/>
</svg>
