<svg width="290" height="289" viewBox="0 0 290 289" fill="none" xmlns="http://www.w3.org/2000/svg">
<path d="M280.414 98.9969C261.39 42.6136 207.913 2 144.917 2C81.9202 2 28.4436 42.6136 9.41961 98.9969H280.414Z" fill="#1D1D1D"/>
<path d="M232.341 257.069C266.1 231.022 287.833 190.243 287.833 144.406C287.833 128.529 285.226 113.258 280.414 98.9969M232.341 257.069C208.175 275.715 177.846 286.812 144.917 286.812C65.986 286.812 2 223.055 2 144.406C2 128.529 4.60769 113.258 9.41961 98.9969M232.341 257.069L9.41961 98.9969M232.341 257.069L198.239 157.689L280.414 98.9969M9.41961 98.9969C28.4436 42.6136 81.9202 2 144.917 2C207.913 2 261.39 42.6136 280.414 98.9969M9.41961 98.9969H280.414" stroke="#1D1D1D" stroke-width="3.0625"/>
</svg>
