<svg width="289" height="289" viewBox="0 0 289 289" fill="none" xmlns="http://www.w3.org/2000/svg">
<path d="M144.406 2C223.055 2 286.812 65.7574 286.812 144.406C286.812 190.243 265.157 231.022 231.518 257.069M144.406 2C81.6348 2 28.3492 42.6136 9.39311 98.9969C4.59838 113.258 2 128.529 2 144.406C2 190.243 23.6559 231.022 57.2944 257.069M144.406 2L57.2944 257.069M144.406 2L231.518 257.069M231.518 257.069C207.438 275.715 177.218 286.812 144.406 286.812C111.594 286.812 81.3742 275.715 57.2944 257.069M231.518 257.069L144.406 196L57.2944 257.069" stroke="#1D1D1D" stroke-width="3.0625"/>
</svg>
