<svg width="428" height="668" viewBox="0 0 428 668" fill="none" xmlns="http://www.w3.org/2000/svg">
<path d="M25.3579 12.678C14.9351 12.0218 12.6778 4 12.6778 0C12.5 4 10.4244 12.0218 0.00183562 12.678C10.4244 13.3343 12.5001 21.3561 12.6778 25.3561C12.6778 21.3561 14.9351 13.3343 25.3579 12.678Z" fill="#1D1D1D"/>
<path d="M427.358 12.678C416.935 12.0218 414.678 4 414.678 0C414.5 4 412.424 12.0218 402.002 12.678C412.424 13.3343 414.5 21.3561 414.678 25.3561C414.678 21.3561 416.935 13.3343 427.358 12.678Z" fill="#1D1D1D"/>
<path d="M25.3579 654.678C14.9351 654.022 12.6778 646 12.6778 642C12.5 646 10.4244 654.022 0.00183562 654.678C10.4244 655.334 12.5001 663.356 12.6778 667.356C12.6778 663.356 14.9351 655.334 25.3579 654.678Z" fill="#1D1D1D"/>
<path d="M427.358 654.678C416.935 654.022 414.678 646 414.678 642C414.5 646 412.424 654.022 402.002 654.678C412.424 655.334 414.5 663.356 414.678 667.356C414.678 663.356 416.935 655.334 427.358 654.678Z" fill="#1D1D1D"/>
<mask id="path-5-inside-1_369_3107" fill="white">
<path fill-rule="evenodd" clip-rule="evenodd" d="M394.539 0.388672H32.4583C32.4576 18.3129 17.927 32.8432 0.00257874 32.8432H0V635.305C0.000859571 635.305 0.00171915 635.305 0.00257874 635.305C17.9274 635.305 32.4583 649.836 32.4583 667.76H394.539C394.539 649.836 409.07 635.305 426.995 635.305H426.995V32.8432H426.995C409.07 32.8432 394.54 18.3129 394.539 0.388672Z"/>
</mask>
<path d="M32.4583 0.388672V-1.63981H30.4299L30.4298 0.388595L32.4583 0.388672ZM394.539 0.388672L396.568 0.388596L396.567 -1.63981H394.539V0.388672ZM0 32.8432V30.8147H-2.02848V32.8432H0ZM0 635.305H-2.02848V637.333H0V635.305ZM32.4583 667.76H30.4298V669.789H32.4583V667.76ZM394.539 667.76V669.789H396.568V667.76H394.539ZM426.995 635.305V637.333H429.024V635.305H426.995ZM426.995 32.8432H429.024V30.8147H426.995V32.8432ZM32.4583 2.41716H394.539V-1.63981H32.4583V2.41716ZM0.00257874 34.8717C19.0472 34.8717 34.486 19.4333 34.4868 0.388749L30.4298 0.388595C30.4292 17.1926 16.8067 30.8147 0.00257874 30.8147V34.8717ZM0 34.8717H0.00257874V30.8147H0V34.8717ZM2.02848 635.305V32.8432H-2.02848V635.305H2.02848ZM0 637.333C1.67885e-06 637.333 3.3577e-06 637.333 5.03655e-06 637.333C6.7154e-06 637.333 8.39425e-06 637.333 1.00731e-05 637.333C1.17519e-05 637.333 1.34308e-05 637.333 1.51096e-05 637.333C1.67885e-05 637.333 1.84673e-05 637.333 2.01462e-05 637.333C2.1825e-05 637.333 2.35039e-05 637.333 2.51827e-05 637.333C2.68616e-05 637.333 2.85404e-05 637.333 3.02193e-05 637.333C3.18981e-05 637.333 3.3577e-05 637.333 3.52558e-05 637.333C3.69347e-05 637.333 3.86135e-05 637.333 4.02924e-05 637.333C4.19712e-05 637.333 4.36501e-05 637.333 4.53289e-05 637.333C4.70078e-05 637.333 4.86866e-05 637.333 5.03655e-05 637.333C5.20443e-05 637.333 5.37232e-05 637.333 5.5402e-05 637.333C5.70809e-05 637.333 5.87597e-05 637.333 6.04386e-05 637.333C6.21174e-05 637.333 6.37963e-05 637.333 6.54751e-05 637.333C6.7154e-05 637.333 6.88328e-05 637.333 7.05117e-05 637.333C7.21905e-05 637.333 7.38694e-05 637.333 7.55482e-05 637.333C7.72271e-05 637.333 7.89059e-05 637.333 8.05848e-05 637.333C8.22636e-05 637.333 8.39425e-05 637.333 8.56213e-05 637.333C8.73002e-05 637.333 8.8979e-05 637.333 9.06579e-05 637.333C9.23367e-05 637.333 9.40156e-05 637.333 9.56944e-05 637.333C9.73733e-05 637.333 9.90521e-05 637.333 0.000100731 637.333C0.00010241 637.333 0.000104089 637.333 0.000105768 637.333C0.000107446 637.333 0.000109125 637.333 0.000110804 637.333C0.000112483 637.333 0.000114162 637.333 0.000115841 637.333C0.000117519 637.333 0.000119198 637.333 0.000120877 637.333C0.000122556 637.333 0.000124235 637.333 0.000125914 637.333C0.000127593 637.333 0.000129271 637.333 0.00013095 637.333C0.000132629 637.333 0.000134308 637.333 0.000135987 637.333C0.000137666 637.333 0.000139345 637.333 0.000141023 637.333C0.000142702 637.333 0.000144381 637.333 0.00014606 637.333C0.000147739 637.333 0.000149418 637.333 0.000151096 637.333C0.000152775 637.333 0.000154454 637.333 0.000156133 637.333C0.000157812 637.333 0.000159491 637.333 0.00016117 637.333C0.000162848 637.333 0.000164527 637.333 0.000166206 637.333C0.000167885 637.333 0.000169564 637.333 0.000171243 637.333C0.000172922 637.333 0.0001746 637.333 0.000176279 637.333C0.000177958 637.333 0.000179637 637.333 0.000181316 637.333C0.000182995 637.333 0.000184673 637.333 0.000186352 637.333C0.000188031 637.333 0.00018971 637.333 0.000191389 637.333C0.000193068 637.333 0.000194747 637.333 0.000196425 637.333C0.000198104 637.333 0.000199783 637.333 0.000201462 637.333C0.000203141 637.333 0.00020482 637.333 0.000206499 637.333C0.000208177 637.333 0.000209856 637.333 0.000211535 637.333C0.000213214 637.333 0.000214893 637.333 0.000216572 637.333C0.000218251 637.333 0.000219929 637.333 0.000221608 637.333C0.000223287 637.333 0.000224966 637.333 0.000226645 637.333C0.000228324 637.333 0.000230002 637.333 0.000231681 637.333C0.00023336 637.333 0.000235039 637.333 0.000236718 637.333C0.000238397 637.333 0.000240076 637.333 0.000241754 637.333C0.000243433 637.333 0.000245112 637.333 0.000246791 637.333C0.00024847 637.333 0.000250149 637.333 0.000251828 637.333C0.000253506 637.333 0.000255185 637.333 0.000256864 637.333C0.000258543 637.333 0.000260222 637.333 0.000261901 637.333C0.00026358 637.333 0.000265258 637.333 0.000266937 637.333C0.000268616 637.333 0.000270295 637.333 0.000271974 637.333C0.000273653 637.333 0.000275331 637.333 0.00027701 637.333C0.000278689 637.333 0.000280368 637.333 0.000282047 637.333C0.000283726 637.333 0.000285405 637.333 0.000287083 637.333C0.000288762 637.333 0.000290441 637.333 0.00029212 637.333C0.000293799 637.333 0.000295478 637.333 0.000297157 637.333C0.000298835 637.333 0.000300514 637.333 0.000302193 637.333C0.000303872 637.333 0.000305551 637.333 0.00030723 637.333C0.000308909 637.333 0.000310587 637.333 0.000312266 637.333C0.000313945 637.333 0.000315624 637.333 0.000317303 637.333C0.000318982 637.333 0.000320661 637.333 0.000322339 637.333C0.000324018 637.333 0.000325697 637.333 0.000327376 637.333C0.000329055 637.333 0.000330734 637.333 0.000332412 637.333C0.000334091 637.333 0.00033577 637.333 0.000337449 637.333C0.000339128 637.333 0.000340807 637.333 0.000342486 637.333C0.000344164 637.333 0.000345843 637.333 0.000347522 637.333C0.000349201 637.333 0.00035088 637.333 0.000352559 637.333C0.000354238 637.333 0.000355916 637.333 0.000357595 637.333C0.000359274 637.333 0.000360953 637.333 0.000362632 637.333C0.000364311 637.333 0.00036599 637.333 0.000367668 637.333C0.000369347 637.333 0.000371026 637.333 0.000372705 637.333C0.000374384 637.333 0.000376063 637.333 0.000377741 637.333C0.00037942 637.333 0.000381099 637.333 0.000382778 637.333C0.000384457 637.333 0.000386136 637.333 0.000387815 637.333C0.000389493 637.333 0.000391172 637.333 0.000392851 637.333C0.00039453 637.333 0.000396209 637.333 0.000397888 637.333C0.000399567 637.333 0.000401245 637.333 0.000402924 637.333C0.000404603 637.333 0.000406282 637.333 0.000407961 637.333C0.00040964 637.333 0.000411319 637.333 0.000412997 637.333C0.000414676 637.333 0.000416355 637.333 0.000418034 637.333C0.000419713 637.333 0.000421392 637.333 0.000423071 637.333C0.000424749 637.333 0.000426428 637.333 0.000428107 637.333C0.000429786 637.333 0.000431465 637.333 0.000433144 637.333C0.000434823 637.333 0.000436501 637.333 0.00043818 637.333C0.000439859 637.333 0.000441538 637.333 0.000443217 637.333C0.000444896 637.333 0.000446575 637.333 0.000448253 637.333C0.000449932 637.333 0.000451611 637.333 0.00045329 637.333C0.000454969 637.333 0.000456648 637.333 0.000458326 637.333C0.000460005 637.333 0.000461684 637.333 0.000463363 637.333C0.000465042 637.333 0.000466721 637.333 0.0004684 637.333C0.000470078 637.333 0.000471757 637.333 0.000473436 637.333C0.000475115 637.333 0.000476794 637.333 0.000478473 637.333C0.000480152 637.333 0.00048183 637.333 0.000483509 637.333C0.000485188 637.333 0.000486867 637.333 0.000488546 637.333C0.000490225 637.333 0.000491904 637.333 0.000493582 637.333C0.000495261 637.333 0.00049694 637.333 0.000498619 637.333C0.000500298 637.333 0.000501977 637.333 0.000503656 637.333C0.000505334 637.333 0.000507013 637.333 0.000508692 637.333C0.000510371 637.333 0.00051205 637.333 0.000513729 637.333C0.000515408 637.333 0.000517086 637.333 0.000518765 637.333C0.000520444 637.333 0.000522123 637.333 0.000523802 637.333C0.000525481 637.333 0.00052716 637.333 0.000528838 637.333C0.000530517 637.333 0.000532196 637.333 0.000533875 637.333C0.000535554 637.333 0.000537233 637.333 0.000538911 637.333C0.00054059 637.333 0.000542269 637.333 0.000543948 637.333C0.000545627 637.333 0.000547306 637.333 0.000548985 637.333C0.000550664 637.333 0.000552342 637.333 0.000554021 637.333C0.0005557 637.333 0.000557379 637.333 0.000559058 637.333C0.000560737 637.333 0.000562416 637.333 0.000564094 637.333C0.000565773 637.333 0.000567452 637.333 0.000569131 637.333C0.00057081 637.333 0.000572489 637.333 0.000574167 637.333C0.000575846 637.333 0.000577525 637.333 0.000579204 637.333C0.000580883 637.333 0.000582562 637.333 0.000584241 637.333C0.000585919 637.333 0.000587598 637.333 0.000589277 637.333C0.000590956 637.333 0.000592635 637.333 0.000594314 637.333C0.000595993 637.333 0.000597671 637.333 0.00059935 637.333C0.000601029 637.333 0.000602708 637.333 0.000604387 637.333C0.000606066 637.333 0.000607745 637.333 0.000609423 637.333C0.000611102 637.333 0.000612781 637.333 0.00061446 637.333C0.000616139 637.333 0.000617818 637.333 0.000619497 637.333C0.000621175 637.333 0.000622854 637.333 0.000624533 637.333C0.000626212 637.333 0.000627891 637.333 0.00062957 637.333C0.000631249 637.333 0.000632927 637.333 0.000634606 637.333C0.000636285 637.333 0.000637964 637.333 0.000639643 637.333C0.000641322 637.333 0.000643001 637.333 0.000644679 637.333C0.000646358 637.333 0.000648037 637.333 0.000649716 637.333C0.000651395 637.333 0.000653074 637.333 0.000654753 637.333C0.000656431 637.333 0.00065811 637.333 0.000659789 637.333C0.000661468 637.333 0.000663147 637.333 0.000664826 637.333C0.000666505 637.333 0.000668183 637.333 0.000669862 637.333C0.000671541 637.333 0.00067322 637.333 0.000674899 637.333C0.000676578 637.333 0.000678257 637.333 0.000679935 637.333C0.000681614 637.333 0.000683293 637.333 0.000684972 637.333C0.000686651 637.333 0.00068833 637.333 0.000690009 637.333C0.000691687 637.333 0.000693366 637.333 0.000695045 637.333C0.000696724 637.333 0.000698403 637.333 0.000700082 637.333C0.000701761 637.333 0.000703439 637.333 0.000705118 637.333C0.000706797 637.333 0.000708476 637.333 0.000710155 637.333C0.000711834 637.333 0.000713513 637.333 0.000715191 637.333C0.00071687 637.333 0.000718549 637.333 0.000720228 637.333C0.000721907 637.333 0.000723586 637.333 0.000725265 637.333C0.000726943 637.333 0.000728622 637.333 0.000730301 637.333C0.00073198 637.333 0.000733659 637.333 0.000735338 637.333C0.000737017 637.333 0.000738695 637.333 0.000740374 637.333C0.000742053 637.333 0.000743732 637.333 0.000745411 637.333C0.00074709 637.333 0.000748769 637.333 0.000750447 637.333C0.000752126 637.333 0.000753805 637.333 0.000755484 637.333C0.000757163 637.333 0.000758842 637.333 0.000760521 637.333C0.000762199 637.333 0.000763878 637.333 0.000765557 637.333C0.000767236 637.333 0.000768915 637.333 0.000770594 637.333C0.000772273 637.333 0.000773951 637.333 0.00077563 637.333C0.000777309 637.333 0.000778988 637.333 0.000780667 637.333C0.000782346 637.333 0.000784025 637.333 0.000785703 637.333C0.000787382 637.333 0.000789061 637.333 0.00079074 637.333C0.000792419 637.333 0.000794098 637.333 0.000795777 637.333C0.000797455 637.333 0.000799134 637.333 0.000800813 637.333C0.000802492 637.333 0.000804171 637.333 0.00080585 637.333C0.000807529 637.333 0.000809207 637.333 0.000810886 637.333C0.000812565 637.333 0.000814244 637.333 0.000815923 637.333C0.000817602 637.333 0.000819281 637.333 0.000820959 637.333C0.000822638 637.333 0.000824317 637.333 0.000825996 637.333C0.000827675 637.333 0.000829354 637.333 0.000831033 637.333C0.000832711 637.333 0.00083439 637.333 0.000836069 637.333C0.000837748 637.333 0.000839427 637.333 0.000841106 637.333C0.000842785 637.333 0.000844464 637.333 0.000846142 637.333C0.000847821 637.333 0.0008495 637.333 0.000851179 637.333C0.000852858 637.333 0.000854537 637.333 0.000856216 637.333C0.000857894 637.333 0.000859573 637.333 0.000861252 637.333C0.000862931 637.333 0.00086461 637.333 0.000866289 637.333C0.000867968 637.333 0.000869646 637.333 0.000871325 637.333C0.000873004 637.333 0.000874683 637.333 0.000876362 637.333C0.000878041 637.333 0.00087972 637.333 0.000881398 637.333C0.000883077 637.333 0.000884756 637.333 0.000886435 637.333C0.000888114 637.333 0.000889793 637.333 0.000891472 637.333C0.00089315 637.333 0.000894829 637.333 0.000896508 637.333C0.000898187 637.333 0.000899866 637.333 0.000901545 637.333C0.000903224 637.333 0.000904902 637.333 0.000906581 637.333C0.00090826 637.333 0.000909939 637.333 0.000911618 637.333C0.000913297 637.333 0.000914976 637.333 0.000916654 637.333C0.000918333 637.333 0.000920012 637.333 0.000921691 637.333C0.00092337 637.333 0.000925049 637.333 0.000926728 637.333C0.000928406 637.333 0.000930085 637.333 0.000931764 637.333C0.000933443 637.333 0.000935122 637.333 0.000936801 637.333C0.00093848 637.333 0.000940158 637.333 0.000941837 637.333C0.000943516 637.333 0.000945195 637.333 0.000946874 637.333C0.000948553 637.333 0.000950232 637.333 0.000951911 637.333C0.000953589 637.333 0.000955268 637.333 0.000956947 637.333C0.000958626 637.333 0.000960305 637.333 0.000961984 637.333C0.000963663 637.333 0.000965341 637.333 0.00096702 637.333C0.000968699 637.333 0.000970378 637.333 0.000972057 637.333C0.000973736 637.333 0.000975415 637.333 0.000977093 637.333C0.000978772 637.333 0.000980451 637.333 0.00098213 637.333C0.000983809 637.333 0.000985488 637.333 0.000987167 637.333C0.000988845 637.333 0.000990524 637.333 0.000992203 637.333C0.000993882 637.333 0.000995561 637.333 0.00099724 637.333C0.000998919 637.333 0.0010006 637.333 0.00100228 637.333C0.00100396 637.333 0.00100563 637.333 0.00100731 637.333C0.00100899 637.333 0.00101067 637.333 0.00101235 637.333C0.00101403 637.333 0.00101571 637.333 0.00101739 637.333C0.00101906 637.333 0.00102074 637.333 0.00102242 637.333C0.0010241 637.333 0.00102578 637.333 0.00102746 637.333C0.00102914 637.333 0.00103082 637.333 0.0010325 637.333C0.00103417 637.333 0.00103585 637.333 0.00103753 637.333C0.00103921 637.333 0.00104089 637.333 0.00104257 637.333C0.00104425 637.333 0.00104593 637.333 0.00104761 637.333C0.00104928 637.333 0.00105096 637.333 0.00105264 637.333C0.00105432 637.333 0.001056 637.333 0.00105768 637.333C0.00105936 637.333 0.00106104 637.333 0.00106272 637.333C0.00106439 637.333 0.00106607 637.333 0.00106775 637.333C0.00106943 637.333 0.00107111 637.333 0.00107279 637.333C0.00107447 637.333 0.00107615 637.333 0.00107783 637.333C0.0010795 637.333 0.00108118 637.333 0.00108286 637.333C0.00108454 637.333 0.00108622 637.333 0.0010879 637.333C0.00108958 637.333 0.00109126 637.333 0.00109293 637.333C0.00109461 637.333 0.00109629 637.333 0.00109797 637.333C0.00109965 637.333 0.00110133 637.333 0.00110301 637.333C0.00110469 637.333 0.00110637 637.333 0.00110804 637.333C0.00110972 637.333 0.0011114 637.333 0.00111308 637.333C0.00111476 637.333 0.00111644 637.333 0.00111812 637.333C0.0011198 637.333 0.00112148 637.333 0.00112315 637.333C0.00112483 637.333 0.00112651 637.333 0.00112819 637.333C0.00112987 637.333 0.00113155 637.333 0.00113323 637.333C0.00113491 637.333 0.00113659 637.333 0.00113826 637.333C0.00113994 637.333 0.00114162 637.333 0.0011433 637.333C0.00114498 637.333 0.00114666 637.333 0.00114834 637.333C0.00115002 637.333 0.0011517 637.333 0.00115337 637.333C0.00115505 637.333 0.00115673 637.333 0.00115841 637.333C0.00116009 637.333 0.00116177 637.333 0.00116345 637.333C0.00116513 637.333 0.0011668 637.333 0.00116848 637.333C0.00117016 637.333 0.00117184 637.333 0.00117352 637.333C0.0011752 637.333 0.00117688 637.333 0.00117856 637.333C0.00118024 637.333 0.00118191 637.333 0.00118359 637.333C0.00118527 637.333 0.00118695 637.333 0.00118863 637.333C0.00119031 637.333 0.00119199 637.333 0.00119367 637.333C0.00119535 637.333 0.00119702 637.333 0.0011987 637.333C0.00120038 637.333 0.00120206 637.333 0.00120374 637.333C0.00120542 637.333 0.0012071 637.333 0.00120878 637.333C0.00121046 637.333 0.00121213 637.333 0.00121381 637.333C0.00121549 637.333 0.00121717 637.333 0.00121885 637.333C0.00122053 637.333 0.00122221 637.333 0.00122389 637.333C0.00122556 637.333 0.00122724 637.333 0.00122892 637.333C0.0012306 637.333 0.00123228 637.333 0.00123396 637.333C0.00123564 637.333 0.00123732 637.333 0.001239 637.333C0.00124067 637.333 0.00124235 637.333 0.00124403 637.333C0.00124571 637.333 0.00124739 637.333 0.00124907 637.333C0.00125075 637.333 0.00125243 637.333 0.00125411 637.333C0.00125578 637.333 0.00125746 637.333 0.00125914 637.333C0.00126082 637.333 0.0012625 637.333 0.00126418 637.333C0.00126586 637.333 0.00126754 637.333 0.00126922 637.333C0.00127089 637.333 0.00127257 637.333 0.00127425 637.333C0.00127593 637.333 0.00127761 637.333 0.00127929 637.333C0.00128097 637.333 0.00128265 637.333 0.00128433 637.333C0.001286 637.333 0.00128768 637.333 0.00128936 637.333C0.00129104 637.333 0.00129272 637.333 0.0012944 637.333C0.00129608 637.333 0.00129776 637.333 0.00129944 637.333C0.00130111 637.333 0.00130279 637.333 0.00130447 637.333C0.00130615 637.333 0.00130783 637.333 0.00130951 637.333C0.00131119 637.333 0.00131287 637.333 0.00131454 637.333C0.00131622 637.333 0.0013179 637.333 0.00131958 637.333C0.00132126 637.333 0.00132294 637.333 0.00132462 637.333C0.0013263 637.333 0.00132798 637.333 0.00132965 637.333C0.00133133 637.333 0.00133301 637.333 0.00133469 637.333C0.00133637 637.333 0.00133805 637.333 0.00133973 637.333C0.00134141 637.333 0.00134309 637.333 0.00134476 637.333C0.00134644 637.333 0.00134812 637.333 0.0013498 637.333C0.00135148 637.333 0.00135316 637.333 0.00135484 637.333C0.00135652 637.333 0.0013582 637.333 0.00135987 637.333C0.00136155 637.333 0.00136323 637.333 0.00136491 637.333C0.00136659 637.333 0.00136827 637.333 0.00136995 637.333C0.00137163 637.333 0.0013733 637.333 0.00137498 637.333C0.00137666 637.333 0.00137834 637.333 0.00138002 637.333C0.0013817 637.333 0.00138338 637.333 0.00138506 637.333C0.00138674 637.333 0.00138841 637.333 0.00139009 637.333C0.00139177 637.333 0.00139345 637.333 0.00139513 637.333C0.00139681 637.333 0.00139849 637.333 0.00140017 637.333C0.00140185 637.333 0.00140352 637.333 0.0014052 637.333C0.00140688 637.333 0.00140856 637.333 0.00141024 637.333C0.00141192 637.333 0.0014136 637.333 0.00141528 637.333C0.00141696 637.333 0.00141863 637.333 0.00142031 637.333C0.00142199 637.333 0.00142367 637.333 0.00142535 637.333C0.00142703 637.333 0.00142871 637.333 0.00143039 637.333C0.00143207 637.333 0.00143374 637.333 0.00143542 637.333C0.0014371 637.333 0.00143878 637.333 0.00144046 637.333C0.00144214 637.333 0.00144382 637.333 0.0014455 637.333C0.00144718 637.333 0.00144885 637.333 0.00145053 637.333C0.00145221 637.333 0.00145389 637.333 0.00145557 637.333C0.00145725 637.333 0.00145893 637.333 0.00146061 637.333C0.00146228 637.333 0.00146396 637.333 0.00146564 637.333C0.00146732 637.333 0.001469 637.333 0.00147068 637.333C0.00147236 637.333 0.00147404 637.333 0.00147572 637.333C0.00147739 637.333 0.00147907 637.333 0.00148075 637.333C0.00148243 637.333 0.00148411 637.333 0.00148579 637.333C0.00148747 637.333 0.00148915 637.333 0.00149083 637.333C0.0014925 637.333 0.00149418 637.333 0.00149586 637.333C0.00149754 637.333 0.00149922 637.333 0.0015009 637.333C0.00150258 637.333 0.00150426 637.333 0.00150594 637.333C0.00150761 637.333 0.00150929 637.333 0.00151097 637.333C0.00151265 637.333 0.00151433 637.333 0.00151601 637.333C0.00151769 637.333 0.00151937 637.333 0.00152105 637.333C0.00152272 637.333 0.0015244 637.333 0.00152608 637.333C0.00152776 637.333 0.00152944 637.333 0.00153112 637.333C0.0015328 637.333 0.00153448 637.333 0.00153616 637.333C0.00153783 637.333 0.00153951 637.333 0.00154119 637.333C0.00154287 637.333 0.00154455 637.333 0.00154623 637.333C0.00154791 637.333 0.00154959 637.333 0.00155126 637.333C0.00155294 637.333 0.00155462 637.333 0.0015563 637.333C0.00155798 637.333 0.00155966 637.333 0.00156134 637.333C0.00156302 637.333 0.0015647 637.333 0.00156637 637.333C0.00156805 637.333 0.00156973 637.333 0.00157141 637.333C0.00157309 637.333 0.00157477 637.333 0.00157645 637.333C0.00157813 637.333 0.00157981 637.333 0.00158148 637.333C0.00158316 637.333 0.00158484 637.333 0.00158652 637.333C0.0015882 637.333 0.00158988 637.333 0.00159156 637.333C0.00159324 637.333 0.00159492 637.333 0.00159659 637.333C0.00159827 637.333 0.00159995 637.333 0.00160163 637.333C0.00160331 637.333 0.00160499 637.333 0.00160667 637.333C0.00160835 637.333 0.00161003 637.333 0.0016117 637.333C0.00161338 637.333 0.00161506 637.333 0.00161674 637.333C0.00161842 637.333 0.0016201 637.333 0.00162178 637.333C0.00162346 637.333 0.00162514 637.333 0.00162681 637.333C0.00162849 637.333 0.00163017 637.333 0.00163185 637.333C0.00163353 637.333 0.00163521 637.333 0.00163689 637.333C0.00163857 637.333 0.00164024 637.333 0.00164192 637.333C0.0016436 637.333 0.00164528 637.333 0.00164696 637.333C0.00164864 637.333 0.00165032 637.333 0.001652 637.333C0.00165368 637.333 0.00165535 637.333 0.00165703 637.333C0.00165871 637.333 0.00166039 637.333 0.00166207 637.333C0.00166375 637.333 0.00166543 637.333 0.00166711 637.333C0.00166879 637.333 0.00167046 637.333 0.00167214 637.333C0.00167382 637.333 0.0016755 637.333 0.00167718 637.333C0.00167886 637.333 0.00168054 637.333 0.00168222 637.333C0.0016839 637.333 0.00168557 637.333 0.00168725 637.333C0.00168893 637.333 0.00169061 637.333 0.00169229 637.333C0.00169397 637.333 0.00169565 637.333 0.00169733 637.333C0.00169901 637.333 0.00170068 637.333 0.00170236 637.333C0.00170404 637.333 0.00170572 637.333 0.0017074 637.333C0.00170908 637.333 0.00171076 637.333 0.00171244 637.333C0.00171412 637.333 0.00171579 637.333 0.00171747 637.333C0.00171915 637.333 0.00172083 637.333 0.00172251 637.333C0.00172419 637.333 0.00172587 637.333 0.00172755 637.333C0.00172922 637.333 0.0017309 637.333 0.00173258 637.333C0.00173426 637.333 0.00173594 637.333 0.00173762 637.333C0.0017393 637.333 0.00174098 637.333 0.00174266 637.333C0.00174433 637.333 0.00174601 637.333 0.00174769 637.333C0.00174937 637.333 0.00175105 637.333 0.00175273 637.333C0.00175441 637.333 0.00175609 637.333 0.00175777 637.333C0.00175944 637.333 0.00176112 637.333 0.0017628 637.333C0.00176448 637.333 0.00176616 637.333 0.00176784 637.333C0.00176952 637.333 0.0017712 637.333 0.00177288 637.333C0.00177455 637.333 0.00177623 637.333 0.00177791 637.333C0.00177959 637.333 0.00178127 637.333 0.00178295 637.333C0.00178463 637.333 0.00178631 637.333 0.00178799 637.333C0.00178966 637.333 0.00179134 637.333 0.00179302 637.333C0.0017947 637.333 0.00179638 637.333 0.00179806 637.333C0.00179974 637.333 0.00180142 637.333 0.0018031 637.333C0.00180477 637.333 0.00180645 637.333 0.00180813 637.333C0.00180981 637.333 0.00181149 637.333 0.00181317 637.333C0.00181485 637.333 0.00181653 637.333 0.0018182 637.333C0.00181988 637.333 0.00182156 637.333 0.00182324 637.333C0.00182492 637.333 0.0018266 637.333 0.00182828 637.333C0.00182996 637.333 0.00183164 637.333 0.00183331 637.333C0.00183499 637.333 0.00183667 637.333 0.00183835 637.333C0.00184003 637.333 0.00184171 637.333 0.00184339 637.333C0.00184507 637.333 0.00184675 637.333 0.00184842 637.333C0.0018501 637.333 0.00185178 637.333 0.00185346 637.333C0.00185514 637.333 0.00185682 637.333 0.0018585 637.333C0.00186018 637.333 0.00186186 637.333 0.00186353 637.333C0.00186521 637.333 0.00186689 637.333 0.00186857 637.333C0.00187025 637.333 0.00187193 637.333 0.00187361 637.333C0.00187529 637.333 0.00187697 637.333 0.00187864 637.333C0.00188032 637.333 0.001882 637.333 0.00188368 637.333C0.00188536 637.333 0.00188704 637.333 0.00188872 637.333C0.0018904 637.333 0.00189208 637.333 0.00189375 637.333C0.00189543 637.333 0.00189711 637.333 0.00189879 637.333C0.00190047 637.333 0.00190215 637.333 0.00190383 637.333C0.00190551 637.333 0.00190719 637.333 0.00190886 637.333C0.00191054 637.333 0.00191222 637.333 0.0019139 637.333C0.00191558 637.333 0.00191726 637.333 0.00191894 637.333C0.00192062 637.333 0.00192229 637.333 0.00192397 637.333C0.00192565 637.333 0.00192733 637.333 0.00192901 637.333C0.00193069 637.333 0.00193237 637.333 0.00193405 637.333C0.00193573 637.333 0.0019374 637.333 0.00193908 637.333C0.00194076 637.333 0.00194244 637.333 0.00194412 637.333C0.0019458 637.333 0.00194748 637.333 0.00194916 637.333C0.00195084 637.333 0.00195251 637.333 0.00195419 637.333C0.00195587 637.333 0.00195755 637.333 0.00195923 637.333C0.00196091 637.333 0.00196259 637.333 0.00196427 637.333C0.00196595 637.333 0.00196762 637.333 0.0019693 637.333C0.00197098 637.333 0.00197266 637.333 0.00197434 637.333C0.00197602 637.333 0.0019777 637.333 0.00197938 637.333C0.00198106 637.333 0.00198273 637.333 0.00198441 637.333C0.00198609 637.333 0.00198777 637.333 0.00198945 637.333C0.00199113 637.333 0.00199281 637.333 0.00199449 637.333C0.00199617 637.333 0.00199784 637.333 0.00199952 637.333C0.0020012 637.333 0.00200288 637.333 0.00200456 637.333C0.00200624 637.333 0.00200792 637.333 0.0020096 637.333C0.00201128 637.333 0.00201295 637.333 0.00201463 637.333C0.00201631 637.333 0.00201799 637.333 0.00201967 637.333C0.00202135 637.333 0.00202303 637.333 0.00202471 637.333C0.00202639 637.333 0.00202806 637.333 0.00202974 637.333C0.00203142 637.333 0.0020331 637.333 0.00203478 637.333C0.00203646 637.333 0.00203814 637.333 0.00203982 637.333C0.00204149 637.333 0.00204317 637.333 0.00204485 637.333C0.00204653 637.333 0.00204821 637.333 0.00204989 637.333C0.00205157 637.333 0.00205325 637.333 0.00205493 637.333C0.0020566 637.333 0.00205828 637.333 0.00205996 637.333C0.00206164 637.333 0.00206332 637.333 0.002065 637.333C0.00206668 637.333 0.00206836 637.333 0.00207004 637.333C0.00207171 637.333 0.00207339 637.333 0.00207507 637.333C0.00207675 637.333 0.00207843 637.333 0.00208011 637.333C0.00208179 637.333 0.00208347 637.333 0.00208515 637.333C0.00208682 637.333 0.0020885 637.333 0.00209018 637.333C0.00209186 637.333 0.00209354 637.333 0.00209522 637.333C0.0020969 637.333 0.00209858 637.333 0.00210026 637.333C0.00210193 637.333 0.00210361 637.333 0.00210529 637.333C0.00210697 637.333 0.00210865 637.333 0.00211033 637.333C0.00211201 637.333 0.00211369 637.333 0.00211537 637.333C0.00211704 637.333 0.00211872 637.333 0.0021204 637.333C0.00212208 637.333 0.00212376 637.333 0.00212544 637.333C0.00212712 637.333 0.0021288 637.333 0.00213048 637.333C0.00213215 637.333 0.00213383 637.333 0.00213551 637.333C0.00213719 637.333 0.00213887 637.333 0.00214055 637.333C0.00214223 637.333 0.00214391 637.333 0.00214559 637.333C0.00214726 637.333 0.00214894 637.333 0.00215062 637.333C0.0021523 637.333 0.00215398 637.333 0.00215566 637.333C0.00215734 637.333 0.00215902 637.333 0.00216069 637.333C0.00216237 637.333 0.00216405 637.333 0.00216573 637.333C0.00216741 637.333 0.00216909 637.333 0.00217077 637.333C0.00217245 637.333 0.00217413 637.333 0.0021758 637.333C0.00217748 637.333 0.00217916 637.333 0.00218084 637.333C0.00218252 637.333 0.0021842 637.333 0.00218588 637.333C0.00218756 637.333 0.00218924 637.333 0.00219091 637.333C0.00219259 637.333 0.00219427 637.333 0.00219595 637.333C0.00219763 637.333 0.00219931 637.333 0.00220099 637.333C0.00220267 637.333 0.00220435 637.333 0.00220602 637.333C0.0022077 637.333 0.00220938 637.333 0.00221106 637.333C0.00221274 637.333 0.00221442 637.333 0.0022161 637.333C0.00221778 637.333 0.00221946 637.333 0.00222113 637.333C0.00222281 637.333 0.00222449 637.333 0.00222617 637.333C0.00222785 637.333 0.00222953 637.333 0.00223121 637.333C0.00223289 637.333 0.00223457 637.333 0.00223624 637.333C0.00223792 637.333 0.0022396 637.333 0.00224128 637.333C0.00224296 637.333 0.00224464 637.333 0.00224632 637.333C0.002248 637.333 0.00224968 637.333 0.00225135 637.333C0.00225303 637.333 0.00225471 637.333 0.00225639 637.333C0.00225807 637.333 0.00225975 637.333 0.00226143 637.333C0.00226311 637.333 0.00226479 637.333 0.00226646 637.333C0.00226814 637.333 0.00226982 637.333 0.0022715 637.333C0.00227318 637.333 0.00227486 637.333 0.00227654 637.333C0.00227822 637.333 0.0022799 637.333 0.00228157 637.333C0.00228325 637.333 0.00228493 637.333 0.00228661 637.333C0.00228829 637.333 0.00228997 637.333 0.00229165 637.333C0.00229333 637.333 0.002295 637.333 0.00229668 637.333C0.00229836 637.333 0.00230004 637.333 0.00230172 637.333C0.0023034 637.333 0.00230508 637.333 0.00230676 637.333C0.00230844 637.333 0.00231011 637.333 0.00231179 637.333C0.00231347 637.333 0.00231515 637.333 0.00231683 637.333C0.00231851 637.333 0.00232019 637.333 0.00232187 637.333C0.00232355 637.333 0.00232522 637.333 0.0023269 637.333C0.00232858 637.333 0.00233026 637.333 0.00233194 637.333C0.00233362 637.333 0.0023353 637.333 0.00233698 637.333C0.00233866 637.333 0.00234033 637.333 0.00234201 637.333C0.00234369 637.333 0.00234537 637.333 0.00234705 637.333C0.00234873 637.333 0.00235041 637.333 0.00235209 637.333C0.00235377 637.333 0.00235544 637.333 0.00235712 637.333C0.0023588 637.333 0.00236048 637.333 0.00236216 637.333C0.00236384 637.333 0.00236552 637.333 0.0023672 637.333C0.00236888 637.333 0.00237055 637.333 0.00237223 637.333C0.00237391 637.333 0.00237559 637.333 0.00237727 637.333C0.00237895 637.333 0.00238063 637.333 0.00238231 637.333C0.00238399 637.333 0.00238566 637.333 0.00238734 637.333C0.00238902 637.333 0.0023907 637.333 0.00239238 637.333C0.00239406 637.333 0.00239574 637.333 0.00239742 637.333C0.0023991 637.333 0.00240077 637.333 0.00240245 637.333C0.00240413 637.333 0.00240581 637.333 0.00240749 637.333C0.00240917 637.333 0.00241085 637.333 0.00241253 637.333C0.00241421 637.333 0.00241588 637.333 0.00241756 637.333C0.00241924 637.333 0.00242092 637.333 0.0024226 637.333C0.00242428 637.333 0.00242596 637.333 0.00242764 637.333C0.00242932 637.333 0.00243099 637.333 0.00243267 637.333C0.00243435 637.333 0.00243603 637.333 0.00243771 637.333C0.00243939 637.333 0.00244107 637.333 0.00244275 637.333C0.00244443 637.333 0.0024461 637.333 0.00244778 637.333C0.00244946 637.333 0.00245114 637.333 0.00245282 637.333C0.0024545 637.333 0.00245618 637.333 0.00245786 637.333C0.00245953 637.333 0.00246121 637.333 0.00246289 637.333C0.00246457 637.333 0.00246625 637.333 0.00246793 637.333C0.00246961 637.333 0.00247129 637.333 0.00247297 637.333C0.00247464 637.333 0.00247632 637.333 0.002478 637.333C0.00247968 637.333 0.00248136 637.333 0.00248304 637.333C0.00248472 637.333 0.0024864 637.333 0.00248808 637.333C0.00248975 637.333 0.00249143 637.333 0.00249311 637.333C0.00249479 637.333 0.00249647 637.333 0.00249815 637.333C0.00249983 637.333 0.00250151 637.333 0.00250319 637.333C0.00250486 637.333 0.00250654 637.333 0.00250822 637.333C0.0025099 637.333 0.00251158 637.333 0.00251326 637.333C0.00251494 637.333 0.00251662 637.333 0.0025183 637.333C0.00251997 637.333 0.00252165 637.333 0.00252333 637.333C0.00252501 637.333 0.00252669 637.333 0.00252837 637.333C0.00253005 637.333 0.00253173 637.333 0.00253341 637.333C0.00253508 637.333 0.00253676 637.333 0.00253844 637.333C0.00254012 637.333 0.0025418 637.333 0.00254348 637.333C0.00254516 637.333 0.00254684 637.333 0.00254852 637.333C0.00255019 637.333 0.00255187 637.333 0.00255355 637.333C0.00255523 637.333 0.00255691 637.333 0.00255859 637.333C0.00256027 637.333 0.00256195 637.333 0.00256363 637.333C0.0025653 637.333 0.00256698 637.333 0.00256866 637.333C0.00257034 637.333 0.00257202 637.333 0.0025737 637.333C0.00257538 637.333 0.00257706 637.333 0.00257874 637.333V633.276C0.00257706 633.276 0.00257538 633.276 0.0025737 633.276C0.00257202 633.276 0.00257034 633.276 0.00256866 633.276C0.00256698 633.276 0.0025653 633.276 0.00256363 633.276C0.00256195 633.276 0.00256027 633.276 0.00255859 633.276C0.00255691 633.276 0.00255523 633.276 0.00255355 633.276C0.00255187 633.276 0.00255019 633.276 0.00254852 633.276C0.00254684 633.276 0.00254516 633.276 0.00254348 633.276C0.0025418 633.276 0.00254012 633.276 0.00253844 633.276C0.00253676 633.276 0.00253508 633.276 0.00253341 633.276C0.00253173 633.276 0.00253005 633.276 0.00252837 633.276C0.00252669 633.276 0.00252501 633.276 0.00252333 633.276C0.00252165 633.276 0.00251997 633.276 0.0025183 633.276C0.00251662 633.276 0.00251494 633.276 0.00251326 633.276C0.00251158 633.276 0.0025099 633.276 0.00250822 633.276C0.00250654 633.276 0.00250486 633.276 0.00250319 633.276C0.00250151 633.276 0.00249983 633.276 0.00249815 633.276C0.00249647 633.276 0.00249479 633.276 0.00249311 633.276C0.00249143 633.276 0.00248975 633.276 0.00248808 633.276C0.0024864 633.276 0.00248472 633.276 0.00248304 633.276C0.00248136 633.276 0.00247968 633.276 0.002478 633.276C0.00247632 633.276 0.00247464 633.276 0.00247297 633.276C0.00247129 633.276 0.00246961 633.276 0.00246793 633.276C0.00246625 633.276 0.00246457 633.276 0.00246289 633.276C0.00246121 633.276 0.00245953 633.276 0.00245786 633.276C0.00245618 633.276 0.0024545 633.276 0.00245282 633.276C0.00245114 633.276 0.00244946 633.276 0.00244778 633.276C0.0024461 633.276 0.00244443 633.276 0.00244275 633.276C0.00244107 633.276 0.00243939 633.276 0.00243771 633.276C0.00243603 633.276 0.00243435 633.276 0.00243267 633.276C0.00243099 633.276 0.00242932 633.276 0.00242764 633.276C0.00242596 633.276 0.00242428 633.276 0.0024226 633.276C0.00242092 633.276 0.00241924 633.276 0.00241756 633.276C0.00241588 633.276 0.00241421 633.276 0.00241253 633.276C0.00241085 633.276 0.00240917 633.276 0.00240749 633.276C0.00240581 633.276 0.00240413 633.276 0.00240245 633.276C0.00240077 633.276 0.0023991 633.276 0.00239742 633.276C0.00239574 633.276 0.00239406 633.276 0.00239238 633.276C0.0023907 633.276 0.00238902 633.276 0.00238734 633.276C0.00238566 633.276 0.00238399 633.276 0.00238231 633.276C0.00238063 633.276 0.00237895 633.276 0.00237727 633.276C0.00237559 633.276 0.00237391 633.276 0.00237223 633.276C0.00237055 633.276 0.00236888 633.276 0.0023672 633.276C0.00236552 633.276 0.00236384 633.276 0.00236216 633.276C0.00236048 633.276 0.0023588 633.276 0.00235712 633.276C0.00235544 633.276 0.00235377 633.276 0.00235209 633.276C0.00235041 633.276 0.00234873 633.276 0.00234705 633.276C0.00234537 633.276 0.00234369 633.276 0.00234201 633.276C0.00234033 633.276 0.00233866 633.276 0.00233698 633.276C0.0023353 633.276 0.00233362 633.276 0.00233194 633.276C0.00233026 633.276 0.00232858 633.276 0.0023269 633.276C0.00232522 633.276 0.00232355 633.276 0.00232187 633.276C0.00232019 633.276 0.00231851 633.276 0.00231683 633.276C0.00231515 633.276 0.00231347 633.276 0.00231179 633.276C0.00231011 633.276 0.00230844 633.276 0.00230676 633.276C0.00230508 633.276 0.0023034 633.276 0.00230172 633.276C0.00230004 633.276 0.00229836 633.276 0.00229668 633.276C0.002295 633.276 0.00229333 633.276 0.00229165 633.276C0.00228997 633.276 0.00228829 633.276 0.00228661 633.276C0.00228493 633.276 0.00228325 633.276 0.00228157 633.276C0.0022799 633.276 0.00227822 633.276 0.00227654 633.276C0.00227486 633.276 0.00227318 633.276 0.0022715 633.276C0.00226982 633.276 0.00226814 633.276 0.00226646 633.276C0.00226479 633.276 0.00226311 633.276 0.00226143 633.276C0.00225975 633.276 0.00225807 633.276 0.00225639 633.276C0.00225471 633.276 0.00225303 633.276 0.00225135 633.276C0.00224968 633.276 0.002248 633.276 0.00224632 633.276C0.00224464 633.276 0.00224296 633.276 0.00224128 633.276C0.0022396 633.276 0.00223792 633.276 0.00223624 633.276C0.00223457 633.276 0.00223289 633.276 0.00223121 633.276C0.00222953 633.276 0.00222785 633.276 0.00222617 633.276C0.00222449 633.276 0.00222281 633.276 0.00222113 633.276C0.00221946 633.276 0.00221778 633.276 0.0022161 633.276C0.00221442 633.276 0.00221274 633.276 0.00221106 633.276C0.00220938 633.276 0.0022077 633.276 0.00220602 633.276C0.00220435 633.276 0.00220267 633.276 0.00220099 633.276C0.00219931 633.276 0.00219763 633.276 0.00219595 633.276C0.00219427 633.276 0.00219259 633.276 0.00219091 633.276C0.00218924 633.276 0.00218756 633.276 0.00218588 633.276C0.0021842 633.276 0.00218252 633.276 0.00218084 633.276C0.00217916 633.276 0.00217748 633.276 0.0021758 633.276C0.00217413 633.276 0.00217245 633.276 0.00217077 633.276C0.00216909 633.276 0.00216741 633.276 0.00216573 633.276C0.00216405 633.276 0.00216237 633.276 0.00216069 633.276C0.00215902 633.276 0.00215734 633.276 0.00215566 633.276C0.00215398 633.276 0.0021523 633.276 0.00215062 633.276C0.00214894 633.276 0.00214726 633.276 0.00214559 633.276C0.00214391 633.276 0.00214223 633.276 0.00214055 633.276C0.00213887 633.276 0.00213719 633.276 0.00213551 633.276C0.00213383 633.276 0.00213215 633.276 0.00213048 633.276C0.0021288 633.276 0.00212712 633.276 0.00212544 633.276C0.00212376 633.276 0.00212208 633.276 0.0021204 633.276C0.00211872 633.276 0.00211704 633.276 0.00211537 633.276C0.00211369 633.276 0.00211201 633.276 0.00211033 633.276C0.00210865 633.276 0.00210697 633.276 0.00210529 633.276C0.00210361 633.276 0.00210193 633.276 0.00210026 633.276C0.00209858 633.276 0.0020969 633.276 0.00209522 633.276C0.00209354 633.276 0.00209186 633.276 0.00209018 633.276C0.0020885 633.276 0.00208682 633.276 0.00208515 633.276C0.00208347 633.276 0.00208179 633.276 0.00208011 633.276C0.00207843 633.276 0.00207675 633.276 0.00207507 633.276C0.00207339 633.276 0.00207171 633.276 0.00207004 633.276C0.00206836 633.276 0.00206668 633.276 0.002065 633.276C0.00206332 633.276 0.00206164 633.276 0.00205996 633.276C0.00205828 633.276 0.0020566 633.276 0.00205493 633.276C0.00205325 633.276 0.00205157 633.276 0.00204989 633.276C0.00204821 633.276 0.00204653 633.276 0.00204485 633.276C0.00204317 633.276 0.00204149 633.276 0.00203982 633.276C0.00203814 633.276 0.00203646 633.276 0.00203478 633.276C0.0020331 633.276 0.00203142 633.276 0.00202974 633.276C0.00202806 633.276 0.00202639 633.276 0.00202471 633.276C0.00202303 633.276 0.00202135 633.276 0.00201967 633.276C0.00201799 633.276 0.00201631 633.276 0.00201463 633.276C0.00201295 633.276 0.00201128 633.276 0.0020096 633.276C0.00200792 633.276 0.00200624 633.276 0.00200456 633.276C0.00200288 633.276 0.0020012 633.276 0.00199952 633.276C0.00199784 633.276 0.00199617 633.276 0.00199449 633.276C0.00199281 633.276 0.00199113 633.276 0.00198945 633.276C0.00198777 633.276 0.00198609 633.276 0.00198441 633.276C0.00198273 633.276 0.00198106 633.276 0.00197938 633.276C0.0019777 633.276 0.00197602 633.276 0.00197434 633.276C0.00197266 633.276 0.00197098 633.276 0.0019693 633.276C0.00196762 633.276 0.00196595 633.276 0.00196427 633.276C0.00196259 633.276 0.00196091 633.276 0.00195923 633.276C0.00195755 633.276 0.00195587 633.276 0.00195419 633.276C0.00195251 633.276 0.00195084 633.276 0.00194916 633.276C0.00194748 633.276 0.0019458 633.276 0.00194412 633.276C0.00194244 633.276 0.00194076 633.276 0.00193908 633.276C0.0019374 633.276 0.00193573 633.276 0.00193405 633.276C0.00193237 633.276 0.00193069 633.276 0.00192901 633.276C0.00192733 633.276 0.00192565 633.276 0.00192397 633.276C0.00192229 633.276 0.00192062 633.276 0.00191894 633.276C0.00191726 633.276 0.00191558 633.276 0.0019139 633.276C0.00191222 633.276 0.00191054 633.276 0.00190886 633.276C0.00190719 633.276 0.00190551 633.276 0.00190383 633.276C0.00190215 633.276 0.00190047 633.276 0.00189879 633.276C0.00189711 633.276 0.00189543 633.276 0.00189375 633.276C0.00189208 633.276 0.0018904 633.276 0.00188872 633.276C0.00188704 633.276 0.00188536 633.276 0.00188368 633.276C0.001882 633.276 0.00188032 633.276 0.00187864 633.276C0.00187697 633.276 0.00187529 633.276 0.00187361 633.276C0.00187193 633.276 0.00187025 633.276 0.00186857 633.276C0.00186689 633.276 0.00186521 633.276 0.00186353 633.276C0.00186186 633.276 0.00186018 633.276 0.0018585 633.276C0.00185682 633.276 0.00185514 633.276 0.00185346 633.276C0.00185178 633.276 0.0018501 633.276 0.00184842 633.276C0.00184675 633.276 0.00184507 633.276 0.00184339 633.276C0.00184171 633.276 0.00184003 633.276 0.00183835 633.276C0.00183667 633.276 0.00183499 633.276 0.00183331 633.276C0.00183164 633.276 0.00182996 633.276 0.00182828 633.276C0.0018266 633.276 0.00182492 633.276 0.00182324 633.276C0.00182156 633.276 0.00181988 633.276 0.0018182 633.276C0.00181653 633.276 0.00181485 633.276 0.00181317 633.276C0.00181149 633.276 0.00180981 633.276 0.00180813 633.276C0.00180645 633.276 0.00180477 633.276 0.0018031 633.276C0.00180142 633.276 0.00179974 633.276 0.00179806 633.276C0.00179638 633.276 0.0017947 633.276 0.00179302 633.276C0.00179134 633.276 0.00178966 633.276 0.00178799 633.276C0.00178631 633.276 0.00178463 633.276 0.00178295 633.276C0.00178127 633.276 0.00177959 633.276 0.00177791 633.276C0.00177623 633.276 0.00177455 633.276 0.00177288 633.276C0.0017712 633.276 0.00176952 633.276 0.00176784 633.276C0.00176616 633.276 0.00176448 633.276 0.0017628 633.276C0.00176112 633.276 0.00175944 633.276 0.00175777 633.276C0.00175609 633.276 0.00175441 633.276 0.00175273 633.276C0.00175105 633.276 0.00174937 633.276 0.00174769 633.276C0.00174601 633.276 0.00174433 633.276 0.00174266 633.276C0.00174098 633.276 0.0017393 633.276 0.00173762 633.276C0.00173594 633.276 0.00173426 633.276 0.00173258 633.276C0.0017309 633.276 0.00172922 633.276 0.00172755 633.276C0.00172587 633.276 0.00172419 633.276 0.00172251 633.276C0.00172083 633.276 0.00171915 633.276 0.00171747 633.276C0.00171579 633.276 0.00171412 633.276 0.00171244 633.276C0.00171076 633.276 0.00170908 633.276 0.0017074 633.276C0.00170572 633.276 0.00170404 633.276 0.00170236 633.276C0.00170068 633.276 0.00169901 633.276 0.00169733 633.276C0.00169565 633.276 0.00169397 633.276 0.00169229 633.276C0.00169061 633.276 0.00168893 633.276 0.00168725 633.276C0.00168557 633.276 0.0016839 633.276 0.00168222 633.276C0.00168054 633.276 0.00167886 633.276 0.00167718 633.276C0.0016755 633.276 0.00167382 633.276 0.00167214 633.276C0.00167046 633.276 0.00166879 633.276 0.00166711 633.276C0.00166543 633.276 0.00166375 633.276 0.00166207 633.276C0.00166039 633.276 0.00165871 633.276 0.00165703 633.276C0.00165535 633.276 0.00165368 633.276 0.001652 633.276C0.00165032 633.276 0.00164864 633.276 0.00164696 633.276C0.00164528 633.276 0.0016436 633.276 0.00164192 633.276C0.00164024 633.276 0.00163857 633.276 0.00163689 633.276C0.00163521 633.276 0.00163353 633.276 0.00163185 633.276C0.00163017 633.276 0.00162849 633.276 0.00162681 633.276C0.00162514 633.276 0.00162346 633.276 0.00162178 633.276C0.0016201 633.276 0.00161842 633.276 0.00161674 633.276C0.00161506 633.276 0.00161338 633.276 0.0016117 633.276C0.00161003 633.276 0.00160835 633.276 0.00160667 633.276C0.00160499 633.276 0.00160331 633.276 0.00160163 633.276C0.00159995 633.276 0.00159827 633.276 0.00159659 633.276C0.00159492 633.276 0.00159324 633.276 0.00159156 633.276C0.00158988 633.276 0.0015882 633.276 0.00158652 633.276C0.00158484 633.276 0.00158316 633.276 0.00158148 633.276C0.00157981 633.276 0.00157813 633.276 0.00157645 633.276C0.00157477 633.276 0.00157309 633.276 0.00157141 633.276C0.00156973 633.276 0.00156805 633.276 0.00156637 633.276C0.0015647 633.276 0.00156302 633.276 0.00156134 633.276C0.00155966 633.276 0.00155798 633.276 0.0015563 633.276C0.00155462 633.276 0.00155294 633.276 0.00155126 633.276C0.00154959 633.276 0.00154791 633.276 0.00154623 633.276C0.00154455 633.276 0.00154287 633.276 0.00154119 633.276C0.00153951 633.276 0.00153783 633.276 0.00153616 633.276C0.00153448 633.276 0.0015328 633.276 0.00153112 633.276C0.00152944 633.276 0.00152776 633.276 0.00152608 633.276C0.0015244 633.276 0.00152272 633.276 0.00152105 633.276C0.00151937 633.276 0.00151769 633.276 0.00151601 633.276C0.00151433 633.276 0.00151265 633.276 0.00151097 633.276C0.00150929 633.276 0.00150761 633.276 0.00150594 633.276C0.00150426 633.276 0.00150258 633.276 0.0015009 633.276C0.00149922 633.276 0.00149754 633.276 0.00149586 633.276C0.00149418 633.276 0.0014925 633.276 0.00149083 633.276C0.00148915 633.276 0.00148747 633.276 0.00148579 633.276C0.00148411 633.276 0.00148243 633.276 0.00148075 633.276C0.00147907 633.276 0.00147739 633.276 0.00147572 633.276C0.00147404 633.276 0.00147236 633.276 0.00147068 633.276C0.001469 633.276 0.00146732 633.276 0.00146564 633.276C0.00146396 633.276 0.00146228 633.276 0.00146061 633.276C0.00145893 633.276 0.00145725 633.276 0.00145557 633.276C0.00145389 633.276 0.00145221 633.276 0.00145053 633.276C0.00144885 633.276 0.00144718 633.276 0.0014455 633.276C0.00144382 633.276 0.00144214 633.276 0.00144046 633.276C0.00143878 633.276 0.0014371 633.276 0.00143542 633.276C0.00143374 633.276 0.00143207 633.276 0.00143039 633.276C0.00142871 633.276 0.00142703 633.276 0.00142535 633.276C0.00142367 633.276 0.00142199 633.276 0.00142031 633.276C0.00141863 633.276 0.00141696 633.276 0.00141528 633.276C0.0014136 633.276 0.00141192 633.276 0.00141024 633.276C0.00140856 633.276 0.00140688 633.276 0.0014052 633.276C0.00140352 633.276 0.00140185 633.276 0.00140017 633.276C0.00139849 633.276 0.00139681 633.276 0.00139513 633.276C0.00139345 633.276 0.00139177 633.276 0.00139009 633.276C0.00138841 633.276 0.00138674 633.276 0.00138506 633.276C0.00138338 633.276 0.0013817 633.276 0.00138002 633.276C0.00137834 633.276 0.00137666 633.276 0.00137498 633.276C0.0013733 633.276 0.00137163 633.276 0.00136995 633.276C0.00136827 633.276 0.00136659 633.276 0.00136491 633.276C0.00136323 633.276 0.00136155 633.276 0.00135987 633.276C0.0013582 633.276 0.00135652 633.276 0.00135484 633.276C0.00135316 633.276 0.00135148 633.276 0.0013498 633.276C0.00134812 633.276 0.00134644 633.276 0.00134476 633.276C0.00134309 633.276 0.00134141 633.276 0.00133973 633.276C0.00133805 633.276 0.00133637 633.276 0.00133469 633.276C0.00133301 633.276 0.00133133 633.276 0.00132965 633.276C0.00132798 633.276 0.0013263 633.276 0.00132462 633.276C0.00132294 633.276 0.00132126 633.276 0.00131958 633.276C0.0013179 633.276 0.00131622 633.276 0.00131454 633.276C0.00131287 633.276 0.00131119 633.276 0.00130951 633.276C0.00130783 633.276 0.00130615 633.276 0.00130447 633.276C0.00130279 633.276 0.00130111 633.276 0.00129944 633.276C0.00129776 633.276 0.00129608 633.276 0.0012944 633.276C0.00129272 633.276 0.00129104 633.276 0.00128936 633.276C0.00128768 633.276 0.001286 633.276 0.00128433 633.276C0.00128265 633.276 0.00128097 633.276 0.00127929 633.276C0.00127761 633.276 0.00127593 633.276 0.00127425 633.276C0.00127257 633.276 0.00127089 633.276 0.00126922 633.276C0.00126754 633.276 0.00126586 633.276 0.00126418 633.276C0.0012625 633.276 0.00126082 633.276 0.00125914 633.276C0.00125746 633.276 0.00125578 633.276 0.00125411 633.276C0.00125243 633.276 0.00125075 633.276 0.00124907 633.276C0.00124739 633.276 0.00124571 633.276 0.00124403 633.276C0.00124235 633.276 0.00124067 633.276 0.001239 633.276C0.00123732 633.276 0.00123564 633.276 0.00123396 633.276C0.00123228 633.276 0.0012306 633.276 0.00122892 633.276C0.00122724 633.276 0.00122556 633.276 0.00122389 633.276C0.00122221 633.276 0.00122053 633.276 0.00121885 633.276C0.00121717 633.276 0.00121549 633.276 0.00121381 633.276C0.00121213 633.276 0.00121046 633.276 0.00120878 633.276C0.0012071 633.276 0.00120542 633.276 0.00120374 633.276C0.00120206 633.276 0.00120038 633.276 0.0011987 633.276C0.00119702 633.276 0.00119535 633.276 0.00119367 633.276C0.00119199 633.276 0.00119031 633.276 0.00118863 633.276C0.00118695 633.276 0.00118527 633.276 0.00118359 633.276C0.00118191 633.276 0.00118024 633.276 0.00117856 633.276C0.00117688 633.276 0.0011752 633.276 0.00117352 633.276C0.00117184 633.276 0.00117016 633.276 0.00116848 633.276C0.0011668 633.276 0.00116513 633.276 0.00116345 633.276C0.00116177 633.276 0.00116009 633.276 0.00115841 633.276C0.00115673 633.276 0.00115505 633.276 0.00115337 633.276C0.0011517 633.276 0.00115002 633.276 0.00114834 633.276C0.00114666 633.276 0.00114498 633.276 0.0011433 633.276C0.00114162 633.276 0.00113994 633.276 0.00113826 633.276C0.00113659 633.276 0.00113491 633.276 0.00113323 633.276C0.00113155 633.276 0.00112987 633.276 0.00112819 633.276C0.00112651 633.276 0.00112483 633.276 0.00112315 633.276C0.00112148 633.276 0.0011198 633.276 0.00111812 633.276C0.00111644 633.276 0.00111476 633.276 0.00111308 633.276C0.0011114 633.276 0.00110972 633.276 0.00110804 633.276C0.00110637 633.276 0.00110469 633.276 0.00110301 633.276C0.00110133 633.276 0.00109965 633.276 0.00109797 633.276C0.00109629 633.276 0.00109461 633.276 0.00109293 633.276C0.00109126 633.276 0.00108958 633.276 0.0010879 633.276C0.00108622 633.276 0.00108454 633.276 0.00108286 633.276C0.00108118 633.276 0.0010795 633.276 0.00107783 633.276C0.00107615 633.276 0.00107447 633.276 0.00107279 633.276C0.00107111 633.276 0.00106943 633.276 0.00106775 633.276C0.00106607 633.276 0.00106439 633.276 0.00106272 633.276C0.00106104 633.276 0.00105936 633.276 0.00105768 633.276C0.001056 633.276 0.00105432 633.276 0.00105264 633.276C0.00105096 633.276 0.00104928 633.276 0.00104761 633.276C0.00104593 633.276 0.00104425 633.276 0.00104257 633.276C0.00104089 633.276 0.00103921 633.276 0.00103753 633.276C0.00103585 633.276 0.00103417 633.276 0.0010325 633.276C0.00103082 633.276 0.00102914 633.276 0.00102746 633.276C0.00102578 633.276 0.0010241 633.276 0.00102242 633.276C0.00102074 633.276 0.00101906 633.276 0.00101739 633.276C0.00101571 633.276 0.00101403 633.276 0.00101235 633.276C0.00101067 633.276 0.00100899 633.276 0.00100731 633.276C0.00100563 633.276 0.00100396 633.276 0.00100228 633.276C0.0010006 633.276 0.000998919 633.276 0.00099724 633.276C0.000995561 633.276 0.000993882 633.276 0.000992203 633.276C0.000990524 633.276 0.000988845 633.276 0.000987167 633.276C0.000985488 633.276 0.000983809 633.276 0.00098213 633.276C0.000980451 633.276 0.000978772 633.276 0.000977093 633.276C0.000975415 633.276 0.000973736 633.276 0.000972057 633.276C0.000970378 633.276 0.000968699 633.276 0.00096702 633.276C0.000965341 633.276 0.000963663 633.276 0.000961984 633.276C0.000960305 633.276 0.000958626 633.276 0.000956947 633.276C0.000955268 633.276 0.000953589 633.276 0.000951911 633.276C0.000950232 633.276 0.000948553 633.276 0.000946874 633.276C0.000945195 633.276 0.000943516 633.276 0.000941837 633.276C0.000940158 633.276 0.00093848 633.276 0.000936801 633.276C0.000935122 633.276 0.000933443 633.276 0.000931764 633.276C0.000930085 633.276 0.000928406 633.276 0.000926728 633.276C0.000925049 633.276 0.00092337 633.276 0.000921691 633.276C0.000920012 633.276 0.000918333 633.276 0.000916654 633.276C0.000914976 633.276 0.000913297 633.276 0.000911618 633.276C0.000909939 633.276 0.00090826 633.276 0.000906581 633.276C0.000904902 633.276 0.000903224 633.276 0.000901545 633.276C0.000899866 633.276 0.000898187 633.276 0.000896508 633.276C0.000894829 633.276 0.00089315 633.276 0.000891472 633.276C0.000889793 633.276 0.000888114 633.276 0.000886435 633.276C0.000884756 633.276 0.000883077 633.276 0.000881398 633.276C0.00087972 633.276 0.000878041 633.276 0.000876362 633.276C0.000874683 633.276 0.000873004 633.276 0.000871325 633.276C0.000869646 633.276 0.000867968 633.276 0.000866289 633.276C0.00086461 633.276 0.000862931 633.276 0.000861252 633.276C0.000859573 633.276 0.000857894 633.276 0.000856216 633.276C0.000854537 633.276 0.000852858 633.276 0.000851179 633.276C0.0008495 633.276 0.000847821 633.276 0.000846142 633.276C0.000844464 633.276 0.000842785 633.276 0.000841106 633.276C0.000839427 633.276 0.000837748 633.276 0.000836069 633.276C0.00083439 633.276 0.000832711 633.276 0.000831033 633.276C0.000829354 633.276 0.000827675 633.276 0.000825996 633.276C0.000824317 633.276 0.000822638 633.276 0.000820959 633.276C0.000819281 633.276 0.000817602 633.276 0.000815923 633.276C0.000814244 633.276 0.000812565 633.276 0.000810886 633.276C0.000809207 633.276 0.000807529 633.276 0.00080585 633.276C0.000804171 633.276 0.000802492 633.276 0.000800813 633.276C0.000799134 633.276 0.000797455 633.276 0.000795777 633.276C0.000794098 633.276 0.000792419 633.276 0.00079074 633.276C0.000789061 633.276 0.000787382 633.276 0.000785703 633.276C0.000784025 633.276 0.000782346 633.276 0.000780667 633.276C0.000778988 633.276 0.000777309 633.276 0.00077563 633.276C0.000773951 633.276 0.000772273 633.276 0.000770594 633.276C0.000768915 633.276 0.000767236 633.276 0.000765557 633.276C0.000763878 633.276 0.000762199 633.276 0.000760521 633.276C0.000758842 633.276 0.000757163 633.276 0.000755484 633.276C0.000753805 633.276 0.000752126 633.276 0.000750447 633.276C0.000748769 633.276 0.00074709 633.276 0.000745411 633.276C0.000743732 633.276 0.000742053 633.276 0.000740374 633.276C0.000738695 633.276 0.000737017 633.276 0.000735338 633.276C0.000733659 633.276 0.00073198 633.276 0.000730301 633.276C0.000728622 633.276 0.000726943 633.276 0.000725265 633.276C0.000723586 633.276 0.000721907 633.276 0.000720228 633.276C0.000718549 633.276 0.00071687 633.276 0.000715191 633.276C0.000713513 633.276 0.000711834 633.276 0.000710155 633.276C0.000708476 633.276 0.000706797 633.276 0.000705118 633.276C0.000703439 633.276 0.000701761 633.276 0.000700082 633.276C0.000698403 633.276 0.000696724 633.276 0.000695045 633.276C0.000693366 633.276 0.000691687 633.276 0.000690009 633.276C0.00068833 633.276 0.000686651 633.276 0.000684972 633.276C0.000683293 633.276 0.000681614 633.276 0.000679935 633.276C0.000678257 633.276 0.000676578 633.276 0.000674899 633.276C0.00067322 633.276 0.000671541 633.276 0.000669862 633.276C0.000668183 633.276 0.000666505 633.276 0.000664826 633.276C0.000663147 633.276 0.000661468 633.276 0.000659789 633.276C0.00065811 633.276 0.000656431 633.276 0.000654753 633.276C0.000653074 633.276 0.000651395 633.276 0.000649716 633.276C0.000648037 633.276 0.000646358 633.276 0.000644679 633.276C0.000643001 633.276 0.000641322 633.276 0.000639643 633.276C0.000637964 633.276 0.000636285 633.276 0.000634606 633.276C0.000632927 633.276 0.000631249 633.276 0.00062957 633.276C0.000627891 633.276 0.000626212 633.276 0.000624533 633.276C0.000622854 633.276 0.000621175 633.276 0.000619497 633.276C0.000617818 633.276 0.000616139 633.276 0.00061446 633.276C0.000612781 633.276 0.000611102 633.276 0.000609423 633.276C0.000607745 633.276 0.000606066 633.276 0.000604387 633.276C0.000602708 633.276 0.000601029 633.276 0.00059935 633.276C0.000597671 633.276 0.000595993 633.276 0.000594314 633.276C0.000592635 633.276 0.000590956 633.276 0.000589277 633.276C0.000587598 633.276 0.000585919 633.276 0.000584241 633.276C0.000582562 633.276 0.000580883 633.276 0.000579204 633.276C0.000577525 633.276 0.000575846 633.276 0.000574167 633.276C0.000572489 633.276 0.00057081 633.276 0.000569131 633.276C0.000567452 633.276 0.000565773 633.276 0.000564094 633.276C0.000562416 633.276 0.000560737 633.276 0.000559058 633.276C0.000557379 633.276 0.0005557 633.276 0.000554021 633.276C0.000552342 633.276 0.000550664 633.276 0.000548985 633.276C0.000547306 633.276 0.000545627 633.276 0.000543948 633.276C0.000542269 633.276 0.00054059 633.276 0.000538911 633.276C0.000537233 633.276 0.000535554 633.276 0.000533875 633.276C0.000532196 633.276 0.000530517 633.276 0.000528838 633.276C0.00052716 633.276 0.000525481 633.276 0.000523802 633.276C0.000522123 633.276 0.000520444 633.276 0.000518765 633.276C0.000517086 633.276 0.000515408 633.276 0.000513729 633.276C0.00051205 633.276 0.000510371 633.276 0.000508692 633.276C0.000507013 633.276 0.000505334 633.276 0.000503656 633.276C0.000501977 633.276 0.000500298 633.276 0.000498619 633.276C0.00049694 633.276 0.000495261 633.276 0.000493582 633.276C0.000491904 633.276 0.000490225 633.276 0.000488546 633.276C0.000486867 633.276 0.000485188 633.276 0.000483509 633.276C0.00048183 633.276 0.000480152 633.276 0.000478473 633.276C0.000476794 633.276 0.000475115 633.276 0.000473436 633.276C0.000471757 633.276 0.000470078 633.276 0.0004684 633.276C0.000466721 633.276 0.000465042 633.276 0.000463363 633.276C0.000461684 633.276 0.000460005 633.276 0.000458326 633.276C0.000456648 633.276 0.000454969 633.276 0.00045329 633.276C0.000451611 633.276 0.000449932 633.276 0.000448253 633.276C0.000446575 633.276 0.000444896 633.276 0.000443217 633.276C0.000441538 633.276 0.000439859 633.276 0.00043818 633.276C0.000436501 633.276 0.000434823 633.276 0.000433144 633.276C0.000431465 633.276 0.000429786 633.276 0.000428107 633.276C0.000426428 633.276 0.000424749 633.276 0.000423071 633.276C0.000421392 633.276 0.000419713 633.276 0.000418034 633.276C0.000416355 633.276 0.000414676 633.276 0.000412997 633.276C0.000411319 633.276 0.00040964 633.276 0.000407961 633.276C0.000406282 633.276 0.000404603 633.276 0.000402924 633.276C0.000401245 633.276 0.000399567 633.276 0.000397888 633.276C0.000396209 633.276 0.00039453 633.276 0.000392851 633.276C0.000391172 633.276 0.000389493 633.276 0.000387815 633.276C0.000386136 633.276 0.000384457 633.276 0.000382778 633.276C0.000381099 633.276 0.00037942 633.276 0.000377741 633.276C0.000376063 633.276 0.000374384 633.276 0.000372705 633.276C0.000371026 633.276 0.000369347 633.276 0.000367668 633.276C0.00036599 633.276 0.000364311 633.276 0.000362632 633.276C0.000360953 633.276 0.000359274 633.276 0.000357595 633.276C0.000355916 633.276 0.000354238 633.276 0.000352559 633.276C0.00035088 633.276 0.000349201 633.276 0.000347522 633.276C0.000345843 633.276 0.000344164 633.276 0.000342486 633.276C0.000340807 633.276 0.000339128 633.276 0.000337449 633.276C0.00033577 633.276 0.000334091 633.276 0.000332412 633.276C0.000330734 633.276 0.000329055 633.276 0.000327376 633.276C0.000325697 633.276 0.000324018 633.276 0.000322339 633.276C0.000320661 633.276 0.000318982 633.276 0.000317303 633.276C0.000315624 633.276 0.000313945 633.276 0.000312266 633.276C0.000310587 633.276 0.000308909 633.276 0.00030723 633.276C0.000305551 633.276 0.000303872 633.276 0.000302193 633.276C0.000300514 633.276 0.000298835 633.276 0.000297157 633.276C0.000295478 633.276 0.000293799 633.276 0.00029212 633.276C0.000290441 633.276 0.000288762 633.276 0.000287083 633.276C0.000285405 633.276 0.000283726 633.276 0.000282047 633.276C0.000280368 633.276 0.000278689 633.276 0.00027701 633.276C0.000275331 633.276 0.000273653 633.276 0.000271974 633.276C0.000270295 633.276 0.000268616 633.276 0.000266937 633.276C0.000265258 633.276 0.00026358 633.276 0.000261901 633.276C0.000260222 633.276 0.000258543 633.276 0.000256864 633.276C0.000255185 633.276 0.000253506 633.276 0.000251828 633.276C0.000250149 633.276 0.00024847 633.276 0.000246791 633.276C0.000245112 633.276 0.000243433 633.276 0.000241754 633.276C0.000240076 633.276 0.000238397 633.276 0.000236718 633.276C0.000235039 633.276 0.00023336 633.276 0.000231681 633.276C0.000230002 633.276 0.000228324 633.276 0.000226645 633.276C0.000224966 633.276 0.000223287 633.276 0.000221608 633.276C0.000219929 633.276 0.000218251 633.276 0.000216572 633.276C0.000214893 633.276 0.000213214 633.276 0.000211535 633.276C0.000209856 633.276 0.000208177 633.276 0.000206499 633.276C0.00020482 633.276 0.000203141 633.276 0.000201462 633.276C0.000199783 633.276 0.000198104 633.276 0.000196425 633.276C0.000194747 633.276 0.000193068 633.276 0.000191389 633.276C0.00018971 633.276 0.000188031 633.276 0.000186352 633.276C0.000184673 633.276 0.000182995 633.276 0.000181316 633.276C0.000179637 633.276 0.000177958 633.276 0.000176279 633.276C0.0001746 633.276 0.000172922 633.276 0.000171243 633.276C0.000169564 633.276 0.000167885 633.276 0.000166206 633.276C0.000164527 633.276 0.000162848 633.276 0.00016117 633.276C0.000159491 633.276 0.000157812 633.276 0.000156133 633.276C0.000154454 633.276 0.000152775 633.276 0.000151096 633.276C0.000149418 633.276 0.000147739 633.276 0.00014606 633.276C0.000144381 633.276 0.000142702 633.276 0.000141023 633.276C0.000139345 633.276 0.000137666 633.276 0.000135987 633.276C0.000134308 633.276 0.000132629 633.276 0.00013095 633.276C0.000129271 633.276 0.000127593 633.276 0.000125914 633.276C0.000124235 633.276 0.000122556 633.276 0.000120877 633.276C0.000119198 633.276 0.000117519 633.276 0.000115841 633.276C0.000114162 633.276 0.000112483 633.276 0.000110804 633.276C0.000109125 633.276 0.000107446 633.276 0.000105768 633.276C0.000104089 633.276 0.00010241 633.276 0.000100731 633.276C9.90521e-05 633.276 9.73733e-05 633.276 9.56944e-05 633.276C9.40156e-05 633.276 9.23367e-05 633.276 9.06579e-05 633.276C8.8979e-05 633.276 8.73002e-05 633.276 8.56213e-05 633.276C8.39425e-05 633.276 8.22636e-05 633.276 8.05848e-05 633.276C7.89059e-05 633.276 7.72271e-05 633.276 7.55482e-05 633.276C7.38694e-05 633.276 7.21905e-05 633.276 7.05117e-05 633.276C6.88328e-05 633.276 6.7154e-05 633.276 6.54751e-05 633.276C6.37963e-05 633.276 6.21174e-05 633.276 6.04386e-05 633.276C5.87597e-05 633.276 5.70809e-05 633.276 5.5402e-05 633.276C5.37232e-05 633.276 5.20443e-05 633.276 5.03655e-05 633.276C4.86866e-05 633.276 4.70078e-05 633.276 4.53289e-05 633.276C4.36501e-05 633.276 4.19712e-05 633.276 4.02924e-05 633.276C3.86135e-05 633.276 3.69347e-05 633.276 3.52558e-05 633.276C3.3577e-05 633.276 3.18981e-05 633.276 3.02193e-05 633.276C2.85404e-05 633.276 2.68616e-05 633.276 2.51827e-05 633.276C2.35039e-05 633.276 2.1825e-05 633.276 2.01462e-05 633.276C1.84673e-05 633.276 1.67885e-05 633.276 1.51096e-05 633.276C1.34308e-05 633.276 1.17519e-05 633.276 1.00731e-05 633.276C8.39425e-06 633.276 6.7154e-06 633.276 5.03655e-06 633.276C3.3577e-06 633.276 1.67885e-06 633.276 0 633.276V637.333ZM0.00257874 637.333C16.8071 637.333 30.4298 650.956 30.4298 667.76H34.4868C34.4868 648.715 19.0477 633.276 0.00257874 633.276V637.333ZM394.539 665.732H32.4583V669.789H394.539V665.732ZM426.995 633.276C407.95 633.276 392.511 648.715 392.511 667.76H396.568C396.568 650.956 410.19 637.333 426.995 637.333V633.276ZM426.995 633.276H426.995V637.333H426.995V633.276ZM424.967 32.8432V635.305H429.024V32.8432H424.967ZM426.995 34.8717H426.995V30.8147H426.995V34.8717ZM392.511 0.388748C392.511 19.4333 407.95 34.8717 426.995 34.8717V30.8147C410.191 30.8147 396.568 17.1926 396.568 0.388596L392.511 0.388748Z" fill="#1D1D1D" mask="url(#path-5-inside-1_369_3107)"/>
<mask id="path-7-inside-2_369_3107" fill="white">
<path fill-rule="evenodd" clip-rule="evenodd" d="M384.406 11.541H41.5873C41.3192 28.2231 27.8461 41.6963 11.1641 41.9644V625.164C28.0111 625.439 41.5835 639.182 41.5835 656.095C41.5835 656.263 41.5822 656.432 41.5795 656.6H384.406C384.404 656.432 384.402 656.263 384.402 656.095C384.402 639.01 398.252 625.16 415.337 625.16C415.507 625.16 415.677 625.161 415.846 625.164V41.9663C415.677 41.969 415.507 41.9704 415.337 41.9704C398.421 41.9704 384.676 28.3927 384.406 11.541Z"/>
</mask>
<path d="M41.5873 11.541V9.51253H39.5911L39.559 11.5084L41.5873 11.541ZM384.406 11.541L386.435 11.5085L386.403 9.51253H384.406V11.541ZM11.1641 41.9644L11.1315 39.9361L9.13558 39.9682V41.9644H11.1641ZM11.1641 625.164H9.13558V627.16L11.131 627.193L11.1641 625.164ZM41.5795 656.6L39.5513 656.567L39.5183 658.628H41.5795V656.6ZM384.406 656.6V658.628H386.468L386.435 656.567L384.406 656.6ZM415.846 625.164L415.813 627.192L417.875 627.226V625.164H415.846ZM415.846 41.9663H417.875V39.9048L415.813 39.9381L415.846 41.9663ZM41.5873 13.5695H384.406V9.51253H41.5873V13.5695ZM11.1967 43.9926C28.9735 43.7069 43.3298 29.3505 43.6155 11.5736L39.559 11.5084C39.3086 27.0957 26.7187 39.6856 11.1315 39.9361L11.1967 43.9926ZM13.1925 625.164V41.9644H9.13558V625.164H13.1925ZM11.131 627.193C26.8726 627.449 39.555 640.291 39.555 656.095H43.612C43.612 638.073 29.1497 623.429 11.1972 623.136L11.131 627.193ZM39.555 656.095C39.555 656.252 39.5538 656.41 39.5513 656.567L43.6077 656.632C43.6106 656.453 43.612 656.274 43.612 656.095H39.555ZM384.406 654.571H41.5795V658.628H384.406V654.571ZM382.374 656.095C382.374 656.274 382.375 656.453 382.378 656.632L386.435 656.567C386.432 656.41 386.431 656.252 386.431 656.095H382.374ZM415.337 623.132C397.132 623.132 382.374 637.89 382.374 656.095H386.431C386.431 640.13 399.372 627.189 415.337 627.189V623.132ZM415.879 623.136C415.698 623.133 415.517 623.132 415.337 623.132V627.189C415.496 627.189 415.655 627.19 415.813 627.192L415.879 623.136ZM413.818 41.9663V625.164H417.875V41.9663H413.818ZM415.337 43.9989C415.518 43.9989 415.698 43.9974 415.879 43.9945L415.813 39.9381C415.655 39.9406 415.496 39.9419 415.337 39.9419V43.9989ZM382.378 11.5735C382.666 29.5309 397.311 43.9989 415.337 43.9989V39.9419C399.53 39.9419 386.687 27.2545 386.435 11.5085L382.378 11.5735Z" fill="#1D1D1D" mask="url(#path-7-inside-2_369_3107)"/>
</svg>
