<svg width="428" height="556" viewBox="0 0 428 556" fill="none" xmlns="http://www.w3.org/2000/svg">
<mask id="path-1-inside-1_380_152" fill="white">
<path fill-rule="evenodd" clip-rule="evenodd" d="M426.995 32.9084C409.283 32.6621 395 18.2269 395 0.455776C395 0.303604 395.001 0.151676 395.003 0H32.9083C32.9104 0.151676 32.9114 0.303604 32.9114 0.455776C32.9114 18.3806 18.3805 32.9116 0.455704 32.9116C0.303556 32.9116 0.151652 32.9105 0 32.9084V523.003C0.151652 523.001 0.303556 523 0.455704 523C18.2283 523 32.6645 537.285 32.9083 555H395.003C395.245 537.438 409.434 523.247 426.995 523.003V32.9084Z"/>
</mask>
<path d="M426.995 32.9084H428.995V30.936L427.023 30.9085L426.995 32.9084ZM395.003 0L397.003 0.0273609L397.031 -2H395.003V0ZM32.9083 0V-2H30.8806L30.9085 0.0275118L32.9083 0ZM0 32.9084L0.0275161 30.9086L-2 30.8807V32.9084H0ZM0 523.003H-2V525.031L0.0273653 525.003L0 523.003ZM32.9083 555L30.9085 555.028L30.9356 557H32.9083V555ZM395.003 555V557H396.976L397.003 555.028L395.003 555ZM426.995 523.003L427.023 525.003L428.995 524.976V523.003H426.995ZM393 0.455776C393 19.3222 408.163 34.6467 426.968 34.9082L427.023 30.9085C410.403 30.6775 397 17.1317 397 0.455776H393ZM393.003 -0.0273609C393.001 0.133195 393 0.294246 393 0.455776H397C397 0.312962 397.001 0.170158 397.003 0.0273609L393.003 -0.0273609ZM32.9083 2H395.003V-2H32.9083V2ZM34.9114 0.455776C34.9114 0.294412 34.9103 0.133314 34.9081 -0.0275118L30.9085 0.0275118C30.9104 0.170039 30.9114 0.312796 30.9114 0.455776H34.9114ZM0.455704 34.9116C19.4851 34.9116 34.9114 19.4852 34.9114 0.455776H30.9114C30.9114 17.276 17.2759 30.9116 0.455704 30.9116V34.9116ZM-0.0275161 34.9082C0.133287 34.9104 0.294362 34.9116 0.455704 34.9116V30.9116C0.312749 30.9116 0.170018 30.9106 0.0275161 30.9086L-0.0275161 34.9082ZM2 523.003V32.9084H-2V523.003H2ZM0.0273653 525.003C0.169867 525.001 0.312649 525 0.455704 525V521C0.294463 521 0.133437 521.001 -0.0273653 521.003L0.0273653 525.003ZM0.455704 525C17.133 525 30.6797 538.405 30.9085 555.028L34.9081 554.972C34.6492 536.166 19.3237 521 0.455704 521V525ZM395.003 553H32.9083V557H395.003V553ZM426.968 521.003C408.324 521.263 393.26 536.328 393.003 554.972L397.003 555.028C397.23 538.549 410.545 525.232 427.023 525.003L426.968 521.003ZM424.995 32.9084V523.003H428.995V32.9084H424.995Z" fill="#1D1D1D" mask="url(#path-1-inside-1_380_152)"/>
<mask id="path-3-inside-2_380_152" fill="white">
<path fill-rule="evenodd" clip-rule="evenodd" d="M11 41.8688V513C27.9695 513.035 41.7312 526.734 41.8677 543.68H385.001C385.138 526.713 398.935 513 415.934 513C415.956 513 415.978 513 416 513V41.8688L415.934 41.8688C398.872 41.8688 385.035 28.0544 385 11H41.8686C41.8333 28.0326 28.0325 41.8334 11 41.8688Z"/>
</mask>
<path d="M11 513H9V514.996L10.9958 515L11 513ZM11 41.8688L10.9958 39.8688L9 39.8729V41.8688H11ZM41.8677 543.68L39.8677 543.696L39.8837 545.68H41.8677V543.68ZM385.001 543.68V545.68H386.985L387.001 543.696L385.001 543.68ZM416 513V515H418V513H416ZM416 41.8688H418V39.8667L415.998 39.8688L416 41.8688ZM415.934 41.8688V43.8688H415.936L415.934 41.8688ZM385 11L387 10.9958L386.996 9H385V11ZM41.8686 11V9H39.8728L39.8686 10.9958L41.8686 11ZM13 513V41.8688H9V513H13ZM43.8676 543.664C43.7223 525.622 29.071 511.038 11.0042 511L10.9958 515C26.8681 515.033 39.7401 527.846 39.8677 543.696L43.8676 543.664ZM385.001 541.68H41.8677V545.68H385.001V541.68ZM387.001 543.696C387.129 527.826 400.034 515 415.934 515V511C397.835 511 383.147 525.599 383.001 543.664L387.001 543.696ZM415.934 515C415.944 515 415.953 515 415.964 515C415.975 515 415.987 515 416 515V511C415.991 511 415.981 511 415.97 511C415.959 511 415.947 511 415.934 511V515ZM414 41.8688V513H418V41.8688H414ZM415.936 43.8688L416.002 43.8688L415.998 39.8688L415.932 39.8688L415.936 43.8688ZM383 11.0042C383.038 29.1613 397.768 43.8688 415.934 43.8688V39.8688C399.975 39.8688 387.033 26.9476 387 10.9958L383 11.0042ZM41.8686 13H385V9H41.8686V13ZM11.0042 43.8688C29.138 43.8311 43.831 29.138 43.8686 11.0042L39.8686 10.9958C39.8356 26.9271 26.927 39.8357 10.9958 39.8688L11.0042 43.8688Z" fill="#1D1D1D" mask="url(#path-3-inside-2_380_152)"/>
<path d="M25.3579 12.678C14.9351 12.0218 12.6778 4 12.6778 0C12.5 4 10.4244 12.0218 0.00183562 12.678C10.4244 13.3343 12.5001 21.3561 12.6778 25.3561C12.6778 21.3561 14.9351 13.3343 25.3579 12.678Z" fill="#1D1D1D"/>
<path d="M427.358 12.678C416.935 12.0218 414.678 4 414.678 0C414.5 4 412.424 12.0218 402.002 12.678C412.424 13.3343 414.5 21.3561 414.678 25.3561C414.678 21.3561 416.935 13.3343 427.358 12.678Z" fill="#1D1D1D"/>
<path d="M25.3579 542.678C14.9351 542.022 12.6778 534 12.6778 530C12.5 534 10.4244 542.022 0.00183562 542.678C10.4244 543.334 12.5001 551.356 12.6778 555.356C12.6778 551.356 14.9351 543.334 25.3579 542.678Z" fill="#1D1D1D"/>
<path d="M427.358 542.678C416.935 542.022 414.678 534 414.678 530C414.5 534 412.424 542.022 402.002 542.678C412.424 543.334 414.5 551.356 414.678 555.356C414.678 551.356 416.935 543.334 427.358 542.678Z" fill="#1D1D1D"/>
</svg>
