<svg width="289" height="289" viewBox="0 0 289 289" fill="none" xmlns="http://www.w3.org/2000/svg">
<path d="M231.518 257.069C265.157 231.022 286.812 190.243 286.812 144.406C286.812 128.529 284.214 113.258 279.419 98.9969M231.518 257.069C207.438 275.715 177.218 286.812 144.406 286.812C65.7574 286.812 2 223.055 2 144.406C2 128.529 4.59838 113.258 9.39311 98.9969M231.518 257.069L9.39311 98.9969M231.518 257.069L197.5 159.5L279.419 98.9969M9.39311 98.9969C28.3492 42.6136 81.6348 2 144.406 2C207.178 2 260.463 42.6136 279.419 98.9969M9.39311 98.9969H279.419" stroke="#1D1D1D" stroke-width="3.0625"/>
</svg>
