<svg width="651" height="625" viewBox="0 0 651 625" fill="none" xmlns="http://www.w3.org/2000/svg">
<path d="M25.3662 12.6938C15.4219 12.0622 12.8088 4.68724 12.6924 0.577705C12.5718 4.68711 9.95109 12.0592 0.00619749 12.68C9.95043 13.3116 12.5636 20.6865 12.68 24.796C12.8006 20.6866 15.4213 13.3145 25.3662 12.6938Z" fill="#1D1D1D"/>
<path d="M25.3662 611.694C15.4219 611.062 12.8088 603.687 12.6924 599.578C12.5718 603.687 9.95109 611.059 0.00619749 611.68C9.95043 612.312 12.5636 619.686 12.68 623.796C12.8006 619.687 15.4213 612.315 25.3662 611.694Z" fill="#1D1D1D"/>
<path d="M650.367 12.6938C640.423 12.0622 637.81 4.68724 637.693 0.577705C637.573 4.68711 634.952 12.0592 625.007 12.68C634.951 13.3116 637.565 20.6865 637.681 24.796C637.802 20.6866 640.422 13.3145 650.367 12.6938Z" fill="#1D1D1D"/>
<path d="M650.367 611.694C640.423 611.062 637.81 603.687 637.693 599.578C637.573 603.687 634.952 611.059 625.007 611.68C634.951 612.312 637.565 619.686 637.681 623.796C637.802 619.687 640.422 612.315 650.367 611.694Z" fill="#1D1D1D"/>
<mask id="path-5-inside-1_707_201" fill="white">
<path fill-rule="evenodd" clip-rule="evenodd" d="M41.8686 11H609C609.035 27.9696 622.734 41.7313 639.68 41.8678V582.001C622.771 582.137 609.094 595.84 609 612.76H41.8682C41.7745 595.778 27.9962 582.035 11 582V41.8688C28.0325 41.8334 41.8333 28.0326 41.8686 11Z"/>
</mask>
<path d="M609 11L611 10.9958L610.996 9H609V11ZM41.8686 11V9H39.8728L39.8686 10.9958L41.8686 11ZM639.68 41.8678H641.68V39.8838L639.696 39.8679L639.68 41.8678ZM639.68 582.001L639.696 584.001L641.68 583.985V582.001H639.68ZM609 612.76V614.76H610.989L611 612.771L609 612.76ZM41.8682 612.76L39.8682 612.771L39.8792 614.76H41.8682V612.76ZM11 582H9V583.996L10.9958 584L11 582ZM11 41.8688L10.9958 39.8688L9 39.8729V41.8688H11ZM609 9H41.8686V13H609V9ZM639.696 39.8679C623.846 39.7402 611.033 26.8682 611 10.9958L607 11.0042C607.038 29.0711 621.622 43.7224 639.664 43.8677L639.696 39.8679ZM641.68 582.001V41.8678H637.68V582.001H641.68ZM611 612.771C611.088 596.946 623.88 584.128 639.696 584.001L639.664 580.001C621.661 580.146 607.1 594.735 607.001 612.749L611 612.771ZM41.8682 614.76H609V610.76H41.8682V614.76ZM10.9958 584C26.8931 584.033 39.7806 596.887 39.8682 612.771L43.8682 612.749C43.7684 594.668 29.0994 580.038 11.0042 580L10.9958 584ZM9 41.8688V582H13V41.8688H9ZM39.8686 10.9958C39.8356 26.9271 26.927 39.8357 10.9958 39.8688L11.0042 43.8688C29.138 43.8311 43.831 29.138 43.8686 11.0042L39.8686 10.9958Z" fill="#1D1D1D" mask="url(#path-5-inside-1_707_201)"/>
<mask id="path-7-inside-2_707_201" fill="white">
<path fill-rule="evenodd" clip-rule="evenodd" d="M0 30.8688V593C17.0544 593.035 30.8687 606.872 30.8687 623.934C30.8687 623.983 30.8686 624.031 30.8683 624.08H620C620 624.031 620 623.983 620 623.934C620 606.85 633.85 593 650.934 593C650.956 593 650.978 593 651 593V30.8688L650.934 30.8688C633.872 30.8688 620.035 17.0544 620 0H30.8686C30.8333 17.0326 17.0325 30.8334 0 30.8688Z"/>
</mask>
<path d="M0 593H-2V594.996L-0.00415146 595L0 593ZM0 30.8688L-0.004155 28.8688L-2 28.8729V30.8688H0ZM30.8683 624.08L28.8684 624.071L28.8591 626.08H30.8683V624.08ZM620 624.08V626.08H622.01L622 624.07L620 624.08ZM651 593V595H653V593H651ZM651 30.8688H653V28.8667L650.998 28.8688L651 30.8688ZM650.934 30.8688L650.934 32.8688L650.936 32.8688L650.934 30.8688ZM620 0L622 -0.00415145L621.996 -2H620V0ZM30.8686 0V-2H28.8728L28.8686 -0.00415051L30.8686 0ZM2 593V30.8688H-2V593H2ZM32.8687 623.934C32.8687 605.769 18.1613 591.038 0.00415146 591L-0.00415146 595C15.9475 595.033 28.8687 607.975 28.8687 623.934H32.8687ZM32.8683 624.089C32.8686 624.038 32.8687 623.986 32.8687 623.934H28.8687C28.8687 623.98 28.8686 624.025 28.8684 624.071L32.8683 624.089ZM620 622.08H30.8683V626.08H620V622.08ZM622 624.07C622 624.026 622 623.982 622 623.934H618C618 623.984 618 624.037 618 624.09L622 624.07ZM622 623.934C622 607.954 634.954 595 650.934 595V591C632.745 591 618 605.745 618 623.934H622ZM650.934 595C650.944 595 650.953 595 650.964 595C650.975 595 650.987 595 651 595V591C650.991 591 650.981 591 650.97 591C650.959 591 650.947 591 650.934 591V595ZM649 30.8688V593H653V30.8688H649ZM650.936 32.8688L651.002 32.8688L650.998 28.8688L650.932 28.8688L650.936 32.8688ZM618 0.00415145C618.038 18.1613 632.768 32.8688 650.934 32.8688V28.8688C634.975 28.8688 622.033 15.9476 622 -0.00415145L618 0.00415145ZM30.8686 2H620V-2H30.8686V2ZM0.004155 32.8688C18.138 32.8311 32.831 18.138 32.8686 0.00415051L28.8686 -0.00415051C28.8356 15.9271 15.927 28.8357 -0.004155 28.8688L0.004155 32.8688Z" fill="#1D1D1D" mask="url(#path-7-inside-2_707_201)"/>
</svg>
